<svg t="1565853166897" class="icon" viewBox="0 0 1024 1024" version="1.1" xmlns="http://www.w3.org/2000/svg" p-id="51255" width="64" height="64"><path d="M512 605.379048m-170.666667 0a170.666667 170.666667 0 1 0 341.333334 0 170.666667 170.666667 0 1 0-341.333334 0Z" fill="#FFCD00" p-id="51256"></path><path d="M843.337143 968.167619H180.662857c-49.249524 0-89.478095-40.228571-89.478095-89.478095s40.228571-89.478095 89.478095-89.478095h8.045714v-227.230477c0-157.500952 128.24381-285.744762 285.744762-285.744762h75.093334c157.500952 0 285.744762 128.24381 285.744762 285.744762v227.230477h8.045714c49.249524 0 89.478095 40.228571 89.478095 89.478095s-40.228571 89.478095-89.478095 89.478095zM180.662857 813.592381c-35.84 0-65.097143 29.257143-65.097143 65.097143s29.257143 65.097143 65.097143 65.097143h662.674286c35.84 0 65.097143-29.257143 65.097143-65.097143s-29.257143-65.097143-65.097143-65.097143h-20.236191c-6.826667 0-12.190476-5.36381-12.190476-12.190476v-239.420953c0-144.091429-117.272381-261.36381-261.363809-261.363809h-75.093334c-144.091429 0-261.36381 117.272381-261.363809 261.363809v239.420953c0 6.826667-5.36381 12.190476-12.190476 12.190476h-20.236191z" p-id="51257"></path><path d="M562.224762 300.617143h-100.449524c-20.967619 0-38.034286-17.066667-38.034286-38.034286v-16.579047c0-20.967619 17.066667-38.034286 38.034286-38.034286h100.449524c20.967619 0 38.034286 17.066667 38.034286 38.034286v16.579047c0 20.967619-17.066667 38.034286-38.034286 38.034286z m-100.449524-68.266667a13.653333 13.653333 0 0 0-13.653333 13.653334v16.579047c0 7.558095 6.095238 13.653333 13.653333 13.653333h100.449524c7.558095 0 13.653333-6.095238 13.653333-13.653333v-16.579047a13.653333 13.653333 0 0 0-13.653333-13.653334h-100.449524z" p-id="51258"></path><path d="M560.761905 232.350476h-97.52381c-48.030476 0-114.590476-85.089524-114.590476-122.392381 0-9.020952 3.413333-14.628571 6.339048-17.798095 3.169524-3.169524 9.020952-7.070476 18.773333-7.070476 16.091429 0 30.96381 6.339048 44.373333 12.190476 11.459048 4.87619 23.161905 9.99619 29.500953 7.558095 4.87619-1.950476 9.99619-8.777143 15.36-16.335238 9.99619-13.653333 23.405714-32.670476 49.005714-32.670476 25.84381 0 39.009524 17.798095 49.493333 32.182857 5.36381 7.314286 10.48381 14.384762 15.847619 17.066667 1.462857 0.731429 5.607619-1.219048 12.190477-4.632381 12.190476-6.095238 30.47619-15.60381 60.464761-15.60381 9.752381 0 15.60381 3.900952 18.773334 7.070476 2.925714 3.169524 6.339048 8.533333 6.339047 17.798096 0 37.546667-66.56 122.63619-114.346666 122.63619z m-187.001905-122.88c-1.706667 2.194286 1.462857 17.310476 18.529524 41.447619 22.918095 32.426667 53.394286 57.051429 70.948571 57.051429h97.52381c17.554286 0 48.030476-24.380952 70.948571-57.051429 17.066667-24.137143 20.23619-39.253333 19.260953-42.422857-24.624762 0.975238-38.765714 8.289524-49.980953 13.897143-10.48381 5.36381-21.455238 10.971429-33.889524 4.87619-11.215238-5.36381-18.529524-15.11619-25.35619-24.624761-9.99619-13.897143-17.066667-22.430476-29.744762-22.430477-12.190476 0-19.260952 8.533333-29.257143 22.430477-7.314286 9.99619-14.628571 20.23619-26.331428 24.868571-15.60381 5.851429-31.939048-1.219048-47.786667-8.045714-11.702857-4.87619-23.649524-9.99619-34.864762-9.996191zM823.344762 918.918095H200.655238a40.521143 40.521143 0 0 1-15.847619-77.775238c6.095238-2.681905 13.409524 0.24381 16.091429 6.582857 2.681905 6.095238-0.24381 13.409524-6.582858 16.091429-5.851429 2.438095-9.752381 8.289524-9.75238 14.872381 0 8.777143 7.070476 16.091429 16.091428 16.091428h622.689524c8.777143 0 16.091429-7.070476 16.091428-16.091428 0-6.339048-3.900952-12.190476-9.75238-14.872381a12.604952 12.604952 0 0 1-6.582858-16.091429c2.681905-6.339048 9.752381-9.020952 16.091429-6.582857a40.521143 40.521143 0 0 1-15.847619 77.775238z" p-id="51259"></path><path d="M512 587.093333a11.459048 11.459048 0 0 1-8.533333-3.657143l-59.245715-59.245714c-4.87619-4.87619-4.87619-12.434286 0-17.310476s12.434286-4.87619 17.310477 0L512 557.592381l50.468571-50.468571c4.87619-4.87619 12.434286-4.87619 17.310477 0s4.87619 12.434286 0 17.310476l-59.245715 59.245714a12.190476 12.190476 0 0 1-8.533333 3.413333zM590.994286 617.569524h-158.232381c-6.826667 0-12.190476-5.36381-12.190476-12.190476s5.36381-12.190476 12.190476-12.190477h158.232381c6.826667 0 12.190476 5.36381 12.190476 12.190477s-5.36381 12.190476-12.190476 12.190476zM590.994286 678.278095h-158.232381c-6.826667 0-12.190476-5.36381-12.190476-12.190476s5.36381-12.190476 12.190476-12.190476h158.232381c6.826667 0 12.190476 5.36381 12.190476 12.190476s-5.36381 12.190476-12.190476 12.190476z" p-id="51260"></path><path d="M512 742.15619c-6.826667 0-12.190476-5.36381-12.190476-12.190476v-155.062857c0-6.826667 5.36381-12.190476 12.190476-12.190476s12.190476 5.36381 12.190476 12.190476v155.062857c0 6.826667-5.36381 12.190476-12.190476 12.190476z" p-id="51261"></path><path d="M682.179048 755.565714c-2.681905 0-5.36381-0.975238-7.801905-2.681904a12.04419 12.04419 0 0 1-1.706667-17.066667c54.613333-66.56 62.171429-161.401905 19.260953-235.76381s-128.731429-114.834286-213.820953-101.180952a11.946667 11.946667 0 0 1-13.897143-9.996191c-0.975238-6.582857 3.413333-12.921905 9.996191-13.897142 94.841905-15.60381 190.902857 29.744762 238.933333 112.883809 48.030476 83.139048 39.253333 188.952381-21.699047 263.314286-2.194286 2.925714-5.607619 4.388571-9.264762 4.388571zM512.487619 836.022857c-81.92 0-159.939048-43.641905-201.630476-116.053333-48.030476-83.139048-39.253333-188.952381 21.699047-263.314286 4.144762-5.12 11.946667-6.095238 17.066667-1.706667 5.12 4.144762 6.095238 11.946667 1.706667 17.066667-54.613333 66.56-62.171429 161.401905-19.260953 235.76381 42.910476 74.361905 128.731429 114.834286 213.820953 101.180952 6.582857-1.219048 12.921905 3.413333 13.897143 9.99619 0.975238 6.582857-3.413333 12.921905-9.996191 13.897143-12.678095 2.194286-25.112381 3.169524-37.302857 3.169524z" p-id="51262"></path></svg>