<svg t="1565853334426" class="icon" viewBox="0 0 1024 1024" version="1.1" xmlns="http://www.w3.org/2000/svg" p-id="54377" width="64" height="64"><path d="M513.4 529.1m-450 0a450 450 0 1 0 900 0 450 450 0 1 0-900 0Z" fill="#FFDFDF" opacity=".6" p-id="54378"></path><path d="M268.9 617.4h-41.4V394h141.2v34.5h-99.8v61h78.5V523h-78.5v94.4zM421.1 617.4h-37.3V452.1h33.7v39.4c4.8-15.4 11.4-26.6 19.8-33.7 8.4-7.1 17-10.6 25.9-10.6 1.2 0 2.8 0.1 4.9 0.2v40.1c-19 0-31.6 6.1-37.7 18.2-6.2 12.1-9.2 23.8-9.2 35.2v76.5zM599.9 564.7l33.7 4.6c-4.4 14.9-12.9 27.3-25.5 37-12.7 9.7-28.5 14.6-47.6 14.6-22.9 0-41.3-7.7-55.3-23.1-14-15.4-20.9-36.2-20.9-62.5 0-25 7-45.7 21.1-62 14.1-16.4 33.2-24.5 57.3-24.5 23.6 0 41.8 8.1 54.7 24.2 12.9 16.1 19.3 36.9 19.3 62.2l-0.2 4.3H523c0 11.2 1.1 20.2 3.2 27 2.1 6.8 6.4 12.7 12.7 17.7 6.3 5 14.2 7.5 23.7 7.5 18.4-0.1 30.9-9.1 37.3-27z m-2.3-49.4c-0.1-11.9-3.7-21.6-10.7-29.1-7-7.5-15.7-11.3-26.1-11.3-10.3 0-18.8 3.5-25.7 10.6s-10.9 17-12.1 29.9h74.6zM775.7 564.7l33.7 4.6c-4.4 14.9-12.9 27.3-25.5 37-12.7 9.7-28.5 14.6-47.6 14.6-22.9 0-41.3-7.7-55.3-23.1-14-15.4-20.9-36.2-20.9-62.5 0-25 7-45.7 21.1-62 14.1-16.4 33.2-24.5 57.3-24.5 23.6 0 41.8 8.1 54.7 24.2 12.9 16.1 19.3 36.9 19.3 62.2l-0.2 4.3H698.8c0 11.2 1.1 20.2 3.2 27 2.1 6.8 6.4 12.7 12.7 17.7 6.3 5 14.2 7.5 23.7 7.5 18.4-0.1 30.8-9.1 37.3-27z m-2.3-49.4c-0.1-11.9-3.7-21.6-10.7-29.1-7-7.5-15.7-11.3-26.1-11.3-10.3 0-18.8 3.5-25.7 10.6s-10.9 17-12.1 29.9h74.6z" fill="#FF7FD8" p-id="54379"></path></svg>