<svg t="1565852810460" class="icon" viewBox="0 0 1024 1024" version="1.1" xmlns="http://www.w3.org/2000/svg" p-id="50396" width="64" height="64"><path d="M128.92 682.6l-81.7 7.781s-31.126-58.352-7.781-151.72c23.339-93.37 108.924-112.823 108.924-112.823s42.806-186.731 167.288-221.744c124.485-35.012 420.154 35.012 420.154 35.012l50.57 229.523s178.943 19.457 175.071 120.604l-7.784 85.585s7.784 7.777 7.784 23.339c0 15.563-11.668 42.797-11.668 42.797s-35.036 3.888-42.81-3.893c-7.771-7.774-93.37-11.673-93.37-11.673s-23.325-120.598-77.794-108.927c-54.462 11.672-108.938-3.893-120.606 93.368l-264.53-7.78s-3.902-105.038-97.271-105.038c0 0-93.366 7.779-108.923 46.688L128.92 682.6z" fill="#DD6E69" p-id="50397"></path><path d="M463.479 281.896l-15.555 167.277-178.968-3.882s46.681-136.158 66.142-151.726c19.453-15.559 50.573-11.669 70.02-11.669h58.361zM501.456 282.452l-9.7 167.332 120.854 10.759s-14.995-138.978-26.206-156.023c-11.204-17.032-32.601-15.713-45.693-17.301l-39.255-4.767zM731.9 250.779s-15.555 33.825-62.227 37.582c-46.69 3.764-31.122 154.141-3.892 172.941 27.23 18.789 116.701 11.278 116.701 11.278L731.9 250.779zM171.726 717.611c0-40.823 33.089-73.912 73.915-73.912 40.823 0 73.909 33.089 73.909 73.912 0 40.829-33.086 73.919-73.909 73.919-40.826 0-73.915-33.09-73.915-73.919zM642.45 729.287c0-40.825 33.086-73.922 73.908-73.922 40.83 0 73.916 33.097 73.916 73.922 0 40.823-33.086 73.916-73.916 73.916-40.822 0-73.908-33.093-73.908-73.916z" fill="#5BB6CE" p-id="50398"></path><path d="M228.13 717.611c0-9.667 7.841-17.508 17.511-17.508 9.667 0 17.504 7.841 17.504 17.508 0 9.673-7.838 17.512-17.504 17.512-9.669 0-17.511-7.839-17.511-17.512zM698.861 729.287c0-9.672 7.838-17.515 17.497-17.515 9.673 0 17.505 7.843 17.505 17.515 0 9.667-7.832 17.505-17.505 17.505-9.659 0-17.497-7.838-17.497-17.505zM35.551 616.462s38.914-23.34 54.465 11.672c15.559 35.009 0 58.354 0 58.354l-31.126 3.893s-9.21-5.694-18.215-22.206c-9.01-16.513-5.124-51.713-5.124-51.713zM941.994 538.661s-50.579-35.016-66.136 42.785c-15.561 77.805 19.447 116.711 19.447 116.711s19.478-7.784 42.817-3.893c23.324 3.893 15.54-19.446 15.54-19.446s6.867-61.12 2.483-91.676c-4.397-30.56-14.151-44.481-14.151-44.481zM650.214 466.684c0 22.563-11.318 40.846-25.282 40.846-13.963 0-25.281-18.283-25.281-40.846 0-22.563 11.318-40.85 25.281-40.85 13.964 0 25.282 18.287 25.282 40.85zM471.27 493.918c0 7.518-6.094 13.612-13.608 13.612h-31.136c-7.508 0-13.609-6.094-13.609-13.612s6.102-13.619 13.609-13.619h31.136c7.514 0.001 13.608 6.102 13.608 13.619z" fill="#FDFDFE" p-id="50399"></path></svg>